<?xml version="1.0" encoding="UTF-8"?>
<svg xmlns="http://www.w3.org/2000/svg" viewBox="0 0 440 440.00000000000006"><title>GromIronWoodClan</title><g transform="translate(120 126.66666666666667) scale(0.15713484026367724) rotate(-45 0 0)"><g><g transform="translate(0, 0)"><path d="M253.5 149.951L46.5 149.951" stroke="black" stroke-width="33" stroke-opacity="1" stroke-linecap="butt" stroke-linejoin="round" fill="none"/></g><g transform="translate(240, 0)"><path d="M270.55 149.95L150 150M29.55 149.95L150 150M150 29.5V150M150 270.5V150" stroke="black" stroke-width="33" stroke-opacity="1" stroke-linecap="butt" stroke-linejoin="round" fill="none"/></g><g transform="translate(480, 0)"><path d="M270.55 149.95L150 150M29.55 149.95L150 150M150 29.5V150M150 270.5V150" stroke="black" stroke-width="33" stroke-opacity="1" stroke-linecap="butt" stroke-linejoin="round" fill="none"/></g></g><g><g transform="translate(120, 120)"><path d="M270.55 149.95L150 150M29.55 149.95L150 150M150 29.5V150M150 270.5V150" stroke="black" stroke-width="33" stroke-opacity="1" stroke-linecap="butt" stroke-linejoin="round" fill="none"/></g><g transform="translate(360, 120)"/><g transform="translate(600, 120)"><path d="M253.5 149.951L46.5 149.951" stroke="black" stroke-width="33" stroke-opacity="1" stroke-linecap="butt" stroke-linejoin="round" fill="none"/></g></g><g><g transform="translate(240, 240)"><path d="M253.5 149.951L29.5 149.951" stroke="black" stroke-width="33" stroke-opacity="1" stroke-linecap="butt" stroke-linejoin="round" fill="none"/></g><g transform="translate(480, 240)"/><g transform="translate(720, 240)"><path d="M253.5 149.951L29.5 149.951" stroke="black" stroke-width="33" stroke-opacity="1" stroke-linecap="butt" stroke-linejoin="round" fill="none"/></g></g><g><g transform="translate(360, 360)"/><g transform="translate(600, 360)"><path d="M150 29.5V253.5" stroke="black" stroke-width="33" stroke-opacity="1" stroke-linecap="butt" stroke-linejoin="round" fill="none"/></g><g transform="translate(840, 360)"><path d="M270.55 149.95L150 150M29.55 149.95L150 150M150 29.5V150M150 270.5V150" stroke="black" stroke-width="33" stroke-opacity="1" stroke-linecap="butt" stroke-linejoin="round" fill="none"/></g></g><g><g transform="translate(-360, 360)"><path d="M270.5 149.951L46.5 149.951" stroke="black" stroke-width="33" stroke-opacity="1" stroke-linecap="butt" stroke-linejoin="round" fill="none"/></g><g transform="translate(-120, 360)"><path d="M253.5 149.951L29.5 149.951" stroke="black" stroke-width="33" stroke-opacity="1" stroke-linecap="butt" stroke-linejoin="round" fill="none"/></g><g transform="translate(120, 360)"><path d="M150 29.5V270.5" stroke="black" stroke-width="33" stroke-opacity="1" stroke-linecap="butt" stroke-linejoin="round" fill="none"/></g></g><g><g transform="translate(-240, 480)"><path d="M270.55 149.95L150 150M29.55 149.95L150 150M150 29.5V150M150 270.5V150" stroke="black" stroke-width="33" stroke-opacity="1" stroke-linecap="butt" stroke-linejoin="round" fill="none"/></g><g transform="translate(0, 480)"/><g transform="translate(240, 480)"><path d="M253.5 149.951L29.5 149.951" stroke="black" stroke-width="33" stroke-opacity="1" stroke-linecap="butt" stroke-linejoin="round" fill="none"/></g></g><g><g transform="translate(-120, 600)"><path d="M253.5 149.951L29.5 149.951" stroke="black" stroke-width="33" stroke-opacity="1" stroke-linecap="butt" stroke-linejoin="round" fill="none"/></g><g transform="translate(120, 600)"/><g transform="translate(360, 600)"><path d="M253.5 149.951L29.5 149.951" stroke="black" stroke-width="33" stroke-opacity="1" stroke-linecap="butt" stroke-linejoin="round" fill="none"/></g></g><g><g transform="translate(0, 720)"><path d="M253.5 149.951L46.5 149.951" stroke="black" stroke-width="33" stroke-opacity="1" stroke-linecap="butt" stroke-linejoin="round" fill="none"/></g><g transform="translate(240, 720)"><path d="M150 29.5V253.5" stroke="black" stroke-width="33" stroke-opacity="1" stroke-linecap="butt" stroke-linejoin="round" fill="none"/></g><g transform="translate(480, 720)"/></g><g><g transform="translate(-720, 720)"><path d="M253.5 149.951L46.5 149.951" stroke="black" stroke-width="33" stroke-opacity="1" stroke-linecap="butt" stroke-linejoin="round" fill="none"/></g><g transform="translate(-480, 720)"><path d="M270.55 149.95L150 150M29.55 149.95L150 150M150 29.5V150M150 270.5V150" stroke="black" stroke-width="33" stroke-opacity="1" stroke-linecap="butt" stroke-linejoin="round" fill="none"/></g><g transform="translate(-240, 720)"><path d="M150 29.5V270.5" stroke="black" stroke-width="33" stroke-opacity="1" stroke-linecap="butt" stroke-linejoin="round" fill="none"/></g></g><g><g transform="translate(-600, 840)"><path d="M253.5 149.951L46.5 149.951" stroke="black" stroke-width="33" stroke-opacity="1" stroke-linecap="butt" stroke-linejoin="round" fill="none"/></g><g transform="translate(-360, 840)"/><g transform="translate(-120, 840)"><path d="M253.5 149.951L29.5 149.951" stroke="black" stroke-width="33" stroke-opacity="1" stroke-linecap="butt" stroke-linejoin="round" fill="none"/></g></g><g><g transform="translate(-480, 960)"><path d="M253.5 149.951L29.5 149.951" stroke="black" stroke-width="33" stroke-opacity="1" stroke-linecap="butt" stroke-linejoin="round" fill="none"/></g><g transform="translate(-240, 960)"/><g transform="translate(0, 960)"><path d="M253.5 149.951L46.5 149.951" stroke="black" stroke-width="33" stroke-opacity="1" stroke-linecap="butt" stroke-linejoin="round" fill="none"/></g></g><g><g transform="translate(-360, 1080)"/><g transform="translate(-120, 1080)"><path d="M270.55 149.95L150 150M29.55 149.95L150 150M150 29.5V150M150 270.5V150" stroke="black" stroke-width="33" stroke-opacity="1" stroke-linecap="butt" stroke-linejoin="round" fill="none"/></g><g transform="translate(120, 1080)"><path d="M253.5 149.951L46.5 149.951" stroke="black" stroke-width="33" stroke-opacity="1" stroke-linecap="butt" stroke-linejoin="round" fill="none"/></g></g><g><g transform="translate(-1080, 1080)"><path d="M150 46.5V253.5" stroke="black" stroke-width="33" stroke-opacity="1" stroke-linecap="butt" stroke-linejoin="round" fill="none"/></g><g transform="translate(-840, 1080)"><path d="M270.55 149.95L150 150M29.55 149.95L150 150M150 29.5V150M150 270.5V150" stroke="black" stroke-width="33" stroke-opacity="1" stroke-linecap="butt" stroke-linejoin="round" fill="none"/></g><g transform="translate(-600, 1080)"><path d="M150 29.5V270.5" stroke="black" stroke-width="33" stroke-opacity="1" stroke-linecap="butt" stroke-linejoin="round" fill="none"/></g></g><g><g transform="translate(-960, 1200)"/><g transform="translate(-720, 1200)"><path d="M270.5 149.951L46.5 149.951" stroke="black" stroke-width="33" stroke-opacity="1" stroke-linecap="butt" stroke-linejoin="round" fill="none"/></g><g transform="translate(-480, 1200)"><path d="M270.55 149.95L150 150M29.55 149.95L150 150M150 29.5V150M150 270.5V150" stroke="black" stroke-width="33" stroke-opacity="1" stroke-linecap="butt" stroke-linejoin="round" fill="none"/></g></g><g><g transform="translate(-840, 1320)"/><g transform="translate(-600, 1320)"><path d="M270.5 149.951L46.5 149.951" stroke="black" stroke-width="33" stroke-opacity="1" stroke-linecap="butt" stroke-linejoin="round" fill="none"/></g><g transform="translate(-360, 1320)"><path d="M253.5 149.951L29.5 149.951" stroke="black" stroke-width="33" stroke-opacity="1" stroke-linecap="butt" stroke-linejoin="round" fill="none"/></g></g><g><g transform="translate(-720, 1440)"><path d="M253.5 149.951L46.5 149.951" stroke="black" stroke-width="33" stroke-opacity="1" stroke-linecap="butt" stroke-linejoin="round" fill="none"/></g><g transform="translate(-480, 1440)"><path d="M150 29.5V253.5" stroke="black" stroke-width="33" stroke-opacity="1" stroke-linecap="butt" stroke-linejoin="round" fill="none"/></g><g transform="translate(-240, 1440)"/></g><path d="M 30 150 L 46.5 166.5 L 46.5 133.5 Z" fill="black" fill-opacity="1"/><path d="M 270 150 L 253.5 133.5 L 253.5 166.5 Z" fill="black" fill-opacity="1"/><path d="M 630 270 L 646.5 286.5 L 646.5 253.5 Z" fill="black" fill-opacity="1"/><path d="M 870 270 L 853.5 253.5 L 853.5 286.5 Z" fill="black" fill-opacity="1"/><path d="M 510 390 L 493.5 373.5 L 493.5 406.5 Z" fill="black" fill-opacity="1"/><path d="M 990 390 L 973.5 373.5 L 973.5 406.5 Z" fill="black" fill-opacity="1"/><path d="M 750 630 L 766.5 613.5 L 733.5 613.5 Z" fill="black" fill-opacity="1"/><path d="M -330 510 L -313.5 526.5 L -313.5 493.5 Z" fill="black" fill-opacity="1"/><path d="M 150 510 L 133.5 493.5 L 133.5 526.5 Z" fill="black" fill-opacity="1"/><path d="M 510 630 L 493.5 613.5 L 493.5 646.5 Z" fill="black" fill-opacity="1"/><path d="M 150 750 L 133.5 733.5 L 133.5 766.5 Z" fill="black" fill-opacity="1"/><path d="M 630 750 L 613.5 733.5 L 613.5 766.5 Z" fill="black" fill-opacity="1"/><path d="M 30 870 L 46.5 886.5 L 46.5 853.5 Z" fill="black" fill-opacity="1"/><path d="M 270 870 L 253.5 853.5 L 253.5 886.5 Z" fill="black" fill-opacity="1"/><path d="M 390 990 L 406.5 973.5 L 373.5 973.5 Z" fill="black" fill-opacity="1"/><path d="M -690 870 L -673.5 886.5 L -673.5 853.5 Z" fill="black" fill-opacity="1"/><path d="M -450 870 L -466.5 853.5 L -466.5 886.5 Z" fill="black" fill-opacity="1"/><path d="M -570 990 L -553.5 1006.5 L -553.5 973.5 Z" fill="black" fill-opacity="1"/><path d="M -330 990 L -346.5 973.5 L -346.5 1006.5 Z" fill="black" fill-opacity="1"/><path d="M 150 990 L 133.5 973.5 L 133.5 1006.5 Z" fill="black" fill-opacity="1"/><path d="M -210 1110 L -226.5 1093.5 L -226.5 1126.5 Z" fill="black" fill-opacity="1"/><path d="M 30 1110 L 46.5 1126.5 L 46.5 1093.5 Z" fill="black" fill-opacity="1"/><path d="M 270 1110 L 253.5 1093.5 L 253.5 1126.5 Z" fill="black" fill-opacity="1"/><path d="M 150 1230 L 166.5 1246.5 L 166.5 1213.5 Z" fill="black" fill-opacity="1"/><path d="M 390 1230 L 373.5 1213.5 L 373.5 1246.5 Z" fill="black" fill-opacity="1"/><path d="M -930 1110 L -946.5 1126.5 L -913.5 1126.5 Z" fill="black" fill-opacity="1"/><path d="M -930 1350 L -913.5 1333.5 L -946.5 1333.5 Z" fill="black" fill-opacity="1"/><path d="M -690 1350 L -673.5 1366.5 L -673.5 1333.5 Z" fill="black" fill-opacity="1"/><path d="M -570 1470 L -553.5 1486.5 L -553.5 1453.5 Z" fill="black" fill-opacity="1"/><path d="M -90 1470 L -106.5 1453.5 L -106.5 1486.5 Z" fill="black" fill-opacity="1"/><path d="M -690 1590 L -673.5 1606.5 L -673.5 1573.5 Z" fill="black" fill-opacity="1"/><path d="M -450 1590 L -466.5 1573.5 L -466.5 1606.5 Z" fill="black" fill-opacity="1"/><path d="M -330 1710 L -313.5 1693.5 L -346.5 1693.5 Z" fill="black" fill-opacity="1"/></g></svg>